<?xml version="1.0" standalone="no"?><!DOCTYPE svg PUBLIC "-//W3C//DTD SVG 1.1//EN" "http://www.w3.org/Graphics/SVG/1.1/DTD/svg11.dtd"><svg t="1684075647591" class="icon" viewBox="0 0 1024 1024" version="1.1" xmlns="http://www.w3.org/2000/svg" p-id="11043" xmlns:xlink="http://www.w3.org/1999/xlink" width="200" height="200"><path d="M691.4 221.3H207.2c-18.6 0-33.8 15.2-33.8 33.8v481.2c0 18.6 15.2 33.8 33.8 33.8H431c9.5 0 18.5 4 24.9 11L549.5 883c6.7 7.3 18.2 7.3 24.9 0L668 780.9c6.4-7 15.4-11 24.9-11h223.8c18.6 0 33.8-15.2 33.8-33.8V255c0-18.6-15.2-33.8-33.8-33.8h-76M371.9 550.5c-28 0-50.7-22.7-50.7-50.6s22.7-50.6 50.7-50.6 50.7 22.7 50.7 50.6c0 27.9-22.7 50.6-50.7 50.6z m190 0c-28 0-50.7-22.7-50.7-50.6s22.7-50.6 50.7-50.6 50.7 22.7 50.7 50.6c0 27.9-22.7 50.6-50.7 50.6z m190.1 0c-28 0-50.7-22.7-50.7-50.6s22.7-50.6 50.7-50.6 50.7 22.7 50.7 50.6c0 27.9-22.7 50.6-50.7 50.6z" fill="#C5E5FF" p-id="11044"></path><path d="M512 898c-8 0-15.7-3.4-21.1-9.3L385.3 773.5c-5.4-5.9-13.1-9.3-21.1-9.3H111.7c-26.3 0-47.7-21.4-47.7-47.6v-543c0-26.2 21.4-47.6 47.7-47.6h546.5c5.3 0 9.5 4.3 9.5 9.5s-4.3 9.5-9.5 9.5H111.7c-15.8 0-28.6 12.8-28.6 28.6v543c0 15.8 12.8 28.6 28.6 28.6h252.6c13.3 0 26.1 5.6 35.1 15.5L505 875.9c3.6 4 10.4 4 14.1 0l105.6-115.2c9-9.8 21.8-15.5 35.1-15.5h252.6c15.8 0 28.6-12.8 28.6-28.6v-543c0-15.8-12.8-28.6-28.6-28.6h-85.8c-5.3 0-9.5-4.3-9.5-9.5s4.3-9.5 9.5-9.5h85.8c26.3 0 47.7 21.4 47.7 47.6v543c0 26.3-21.4 47.6-47.7 47.6H659.8c-8 0-15.7 3.4-21.1 9.3L533.1 888.7c-5.4 5.9-13.1 9.3-21.1 9.3z m214.5-381.4c-36.8 0-66.7-29.9-66.7-66.7s29.9-66.7 66.7-66.7 66.7 29.9 66.7 66.7-29.9 66.7-66.7 66.7z m0-114.3c-26.3 0-47.7 21.4-47.7 47.6s21.4 47.6 47.7 47.6c26.3 0 47.7-21.4 47.7-47.6s-21.4-47.6-47.7-47.6zM512 516.6c-36.8 0-66.7-29.9-66.7-66.7s29.9-66.7 66.7-66.7 66.7 29.9 66.7 66.7-29.9 66.7-66.7 66.7z m0-114.3c-26.3 0-47.7 21.4-47.7 47.6s21.4 47.6 47.7 47.6c26.3 0 47.7-21.4 47.7-47.6s-21.4-47.6-47.7-47.6zM297.5 516.6c-36.8 0-66.7-29.9-66.7-66.7s29.9-66.7 66.7-66.7 66.7 29.9 66.7 66.7-29.9 66.7-66.7 66.7z m0-114.3c-26.3 0-47.7 21.4-47.7 47.6s21.4 47.6 47.7 47.6 47.7-21.4 47.7-47.6-21.4-47.6-47.7-47.6z" fill="#3B94FF" p-id="11045"></path></svg>